<?xml version="1.0" encoding="UTF-8" standalone="no"?>
<!-- Created with Inkscape (http://www.inkscape.org/) -->

<svg
   xmlns:dc="http://purl.org/dc/elements/1.1/"
   xmlns:cc="http://creativecommons.org/ns#"
   xmlns:rdf="http://www.w3.org/1999/02/22-rdf-syntax-ns#"
   xmlns:svg="http://www.w3.org/2000/svg"
   xmlns="http://www.w3.org/2000/svg"
   xmlns:sodipodi="http://sodipodi.sourceforge.net/DTD/sodipodi-0.dtd"
   xmlns:inkscape="http://www.inkscape.org/namespaces/inkscape"
   width="210mm"
   height="297mm"
   viewBox="0 0 744.09448819 1052.3622047"
   id="svg4242"
   version="1.1"
   inkscape:version="0.91 r13725"
   sodipodi:docname="ipm.svg"
   inkscape:export-filename="/home/sven/Documents/Tenerife/thesis tenerife/imgs/ipm.png"
   inkscape:export-xdpi="90"
   inkscape:export-ydpi="90">
  <defs
     id="defs4244" />
  <sodipodi:namedview
     id="base"
     pagecolor="#ffffff"
     bordercolor="#666666"
     borderopacity="1.0"
     inkscape:pageopacity="0.0"
     inkscape:pageshadow="2"
     inkscape:zoom="1.4"
     inkscape:cx="327.22485"
     inkscape:cy="638.12842"
     inkscape:document-units="px"
     inkscape:current-layer="layer1"
     showgrid="true"
     inkscape:snap-grids="false"
     inkscape:window-width="1301"
     inkscape:window-height="744"
     inkscape:window-x="65"
     inkscape:window-y="24"
     inkscape:window-maximized="1">
    <inkscape:grid
       type="xygrid"
       id="grid4790" />
  </sodipodi:namedview>
  <metadata
     id="metadata4247">
    <rdf:RDF>
      <cc:Work
         rdf:about="">
        <dc:format>image/svg+xml</dc:format>
        <dc:type
           rdf:resource="http://purl.org/dc/dcmitype/StillImage" />
        <dc:title></dc:title>
      </cc:Work>
    </rdf:RDF>
  </metadata>
  <g
     inkscape:label="Layer 1"
     inkscape:groupmode="layer"
     id="layer1">
    <path
       style="fill:none;fill-rule:evenodd;stroke:#000000;stroke-width:1px;stroke-linecap:butt;stroke-linejoin:miter;stroke-opacity:1"
       d="m 260,252.3622 0,200"
       id="path4138"
       inkscape:connector-curvature="0" />
    <path
       style="fill:none;fill-rule:evenodd;stroke:#000000;stroke-width:1px;stroke-linecap:butt;stroke-linejoin:miter;stroke-opacity:1"
       d="m 300,252.3622 0,200"
       id="path4140"
       inkscape:connector-curvature="0" />
    <path
       style="fill:none;fill-rule:evenodd;stroke:#000000;stroke-width:1px;stroke-linecap:butt;stroke-linejoin:miter;stroke-opacity:1"
       d="m 340,252.3622 0,200"
       id="path4142"
       inkscape:connector-curvature="0" />
    <path
       style="fill:none;fill-rule:evenodd;stroke:#000000;stroke-width:1px;stroke-linecap:butt;stroke-linejoin:miter;stroke-opacity:1"
       d="m 380,252.3622 0,200"
       id="path4144"
       inkscape:connector-curvature="0" />
    <path
       style="fill:none;fill-rule:evenodd;stroke:#000000;stroke-width:1px;stroke-linecap:butt;stroke-linejoin:miter;stroke-opacity:1"
       d="m 420,252.3622 0,200"
       id="path4146"
       inkscape:connector-curvature="0" />
    <path
       style="fill:none;fill-rule:evenodd;stroke:#000000;stroke-width:1px;stroke-linecap:butt;stroke-linejoin:miter;stroke-opacity:1"
       d="m 240,272.3622 200,0"
       id="path4148"
       inkscape:connector-curvature="0" />
    <path
       style="fill:none;fill-rule:evenodd;stroke:#000000;stroke-width:1px;stroke-linecap:butt;stroke-linejoin:miter;stroke-opacity:1"
       d="m 240,312.3622 200,0"
       id="path4152"
       inkscape:connector-curvature="0" />
    <path
       style="fill:none;fill-rule:evenodd;stroke:#000000;stroke-width:1px;stroke-linecap:butt;stroke-linejoin:miter;stroke-opacity:1"
       d="m 440,352.3622 -200,0"
       id="path4154"
       inkscape:connector-curvature="0" />
    <path
       style="fill:none;fill-rule:evenodd;stroke:#000000;stroke-width:1px;stroke-linecap:butt;stroke-linejoin:miter;stroke-opacity:1"
       d="m 240,392.3622 200,0"
       id="path4156"
       inkscape:connector-curvature="0" />
    <path
       style="fill:none;fill-rule:evenodd;stroke:#000000;stroke-width:1px;stroke-linecap:butt;stroke-linejoin:miter;stroke-opacity:1"
       d="m 440,432.3622 -200,0"
       id="path4158"
       inkscape:connector-curvature="0" />
    <path
       style="fill:none;fill-rule:evenodd;stroke:#000000;stroke-width:4.4;stroke-linecap:butt;stroke-linejoin:miter;stroke-opacity:1;stroke-miterlimit:4;stroke-dasharray:none"
       d="m 304.28571,327.3622 50.71429,100 49.28571,-90.71428 -50,-49.28572 z"
       id="path4824"
       inkscape:connector-curvature="0" />
    <path
       style="fill:#ff000c;fill-opacity:0.7372549;stroke:#000000;stroke-width:1.48300004;stroke-miterlimit:4;stroke-dasharray:none;stroke-opacity:1"
       id="path4160-5"
       sodipodi:type="arc"
       sodipodi:cx="405"
       sodipodi:cy="337.36221"
       sodipodi:rx="5"
       sodipodi:ry="5"
       sodipodi:start="0"
       sodipodi:end="6.269851"
       sodipodi:open="true"
       d="m 410,337.36221 a 5,5 0 0 1 -4.98333,4.99998 5,5 0 0 1 -5.01656,-4.96664 5,5 0 0 1 4.94989,-5.03309 5,5 0 0 1 5.04956,4.93308" />
    <path
       style="fill:#ff000c;fill-opacity:0.7372549;stroke:#000000;stroke-width:1.48300004;stroke-miterlimit:4;stroke-dasharray:none;stroke-opacity:1"
       id="path4160-3"
       sodipodi:type="arc"
       sodipodi:cx="355"
       sodipodi:cy="427.36221"
       sodipodi:rx="5"
       sodipodi:ry="5"
       sodipodi:start="0"
       sodipodi:end="6.269851"
       sodipodi:open="true"
       d="m 360,427.36221 a 5,5 0 0 1 -4.98333,4.99998 5,5 0 0 1 -5.01656,-4.96664 5,5 0 0 1 4.94989,-5.03309 5,5 0 0 1 5.04956,4.93308" />
    <path
       style="fill:#ff000c;fill-opacity:0.7372549;stroke:#000000;stroke-width:1.48300004;stroke-miterlimit:4;stroke-dasharray:none;stroke-opacity:1"
       id="path4160-6"
       sodipodi:type="arc"
       sodipodi:cx="305"
       sodipodi:cy="327.36221"
       sodipodi:rx="5"
       sodipodi:ry="5"
       sodipodi:start="0"
       sodipodi:end="6.269851"
       sodipodi:open="true"
       d="m 310,327.36221 a 5,5 0 0 1 -4.98333,4.99998 5,5 0 0 1 -5.01656,-4.96664 5,5 0 0 1 4.94989,-5.03309 5,5 0 0 1 5.04956,4.93308" />
    <path
       style="fill:#ff000c;fill-opacity:0.7372549;stroke:#000000;stroke-width:1.48300004;stroke-miterlimit:4;stroke-dasharray:none;stroke-opacity:1"
       id="path4160-7"
       sodipodi:type="arc"
       sodipodi:cx="355"
       sodipodi:cy="287.36221"
       sodipodi:rx="5"
       sodipodi:ry="5"
       sodipodi:start="0"
       sodipodi:end="6.269851"
       sodipodi:open="true"
       d="m 360,287.36221 a 5,5 0 0 1 -4.98333,4.99998 5,5 0 0 1 -5.01656,-4.96664 5,5 0 0 1 4.94989,-5.03309 5,5 0 0 1 5.04956,4.93308" />
  </g>
</svg>
